<svg width="40" height="40" viewBox="0 0 40 40" fill="none" xmlns="http://www.w3.org/2000/svg" role="img" aria-label="Boardsy">
  <rect x="2.5" y="4.5" width="35" height="27" rx="5" fill="#ffffff" stroke="#2563ff" stroke-width="2.5"/>
  <!-- faint board grid -->
  <path d="M11 5.5V30.5 M20 5.5V30.5 M29 5.5V30.5 M3 13H37 M3 22H37" stroke="#dce6f5" stroke-width="1"/>
  <!-- a live curve drawn on the board -->
  <path d="M7 25 C 13 25, 15 11, 20 11 S 27 25, 33 11" stroke="#12b5a6" stroke-width="2.6" stroke-linecap="round" fill="none"/>
  <!-- the "thinks with you" spark -->
  <path d="M29.5 8.2l.9 2.1 2.1.9-2.1.9-.9 2.1-.9-2.1-2.1-.9 2.1-.9z" fill="#ffb020"/>
  <!-- stand -->
  <path d="M14 31.5l-2 4 M26 31.5l2 4 M20 31.5V36" stroke="#2563ff" stroke-width="2.5" stroke-linecap="round"/>
</svg>
